<svg width="16" height="16" viewBox="0 0 16 16" fill="none" xmlns="http://www.w3.org/2000/svg">
  <path fill-rule="evenodd" clip-rule="evenodd" d="M13.5 6.72752C13.5 11.1823 8 15.0006 8 15.0006C8 15.0006 2.5 11.1823 2.5 6.72752C2.5 3.5643 4.96243 1 8 1C11.0376 1 13.5 3.5643 13.5 6.72752ZM7.99984 8.63524C9.01236 8.63524 9.83317 7.78048 9.83317 6.72607C9.83317 5.67166 9.01236 4.81689 7.99984 4.81689C6.98731 4.81689 6.1665 5.67166 6.1665 6.72607C6.1665 7.78048 6.98731 8.63524 7.99984 8.63524Z" fill="#FD6F1F"/>
  <path fill-rule="evenodd" clip-rule="evenodd" d="M13.5 6.72752C13.5 11.1823 8 15.0006 8 15.0006C8 15.0006 2.5 11.1823 2.5 6.72752C2.5 3.5643 4.96243 1 8 1C11.0376 1 13.5 3.5643 13.5 6.72752ZM7.99984 8.63524C9.01236 8.63524 9.83317 7.78048 9.83317 6.72607C9.83317 5.67166 9.01236 4.81689 7.99984 4.81689C6.98731 4.81689 6.1665 5.67166 6.1665 6.72607C6.1665 7.78048 6.98731 8.63524 7.99984 8.63524Z" fill="url(#paint0_linear)" fill-opacity="0.7"/>
  <defs>
    <linearGradient id="paint0_linear" x1="2.5" y1="15.0006" x2="15.5865" y2="12.6585" gradientUnits="userSpaceOnUse">
      <stop stop-color="#E27357"/>
      <stop offset="1" stop-color="#F79B5E"/>
    </linearGradient>
  </defs>
</svg>
